<?xml version="1.0" encoding="UTF-8"?>
<svg version="1.1" xmlns="http://www.w3.org/2000/svg" width="250" height="250">
<path d="M0 0 C82.5 0 165 0 250 0 C250 82.5 250 165 250 250 C167.5 250 85 250 0 250 C0 167.5 0 85 0 0 Z " fill="#FDFDFD" transform="translate(0,0)"/>
<path d="M0 0 C6.77978886 1.579114 12.27864102 4.14187153 18.125 7.875 C24.24510498 11.27826971 28.75731456 11.15601356 35.41235352 10.07666016 C42.48465759 8.93855439 49.40361937 8.74243514 56.5625 8.75 C57.65651123 8.74154053 58.75052246 8.73308105 59.87768555 8.72436523 C65.56843905 8.74222917 70.61751427 9.25033947 76.1328125 10.61425781 C81.62373871 11.74862803 86.35848159 8.46626813 91.0625 6 C92.46810482 5.26708664 93.87560324 4.53779112 95.28515625 3.8125 C95.90269775 3.48894531 96.52023926 3.16539063 97.15649414 2.83203125 C101.2124197 1.00146652 105.07778184 0.78385567 109.5 0.6875 C110.6240625 0.65011719 111.748125 0.61273438 112.90625 0.57421875 C116 1 116 1 118.28125 2.58203125 C123.48902938 9.90842997 122.32803898 19.16357075 122.30273438 27.75195312 C122.43837317 35.0195674 123.62948551 39.2345119 128 45 C135.4179937 58.51817763 132.96303609 76.71940443 129 91 C125.25286312 103.55984768 116.25079158 114.44818109 104.75 120.79296875 C98.95766788 123.50812443 93.03124269 125.87132611 87 128 C87.32484375 129.26070312 87.6496875 130.52140625 87.984375 131.8203125 C89.47164548 139.2750587 89.29907864 146.77279916 89.26074219 154.34277344 C89.24993547 156.89021116 89.26072974 159.4369575 89.2734375 161.984375 C89.27211732 163.61198071 89.26955785 165.239586 89.265625 166.8671875 C89.26967346 167.62450165 89.27372192 168.3818158 89.27789307 169.16207886 C89.24468266 172.89273188 89.21279499 175.89721302 87 179 C83.9167365 180.54163175 81.39121901 180.29747535 78 180 C75.90873721 178.23529987 75.10514631 176.77020306 74.73440552 174.05450439 C74.62156348 171.57611315 74.61152959 169.11371054 74.62890625 166.6328125 C74.61152252 164.75911277 74.59393815 162.88541489 74.57617188 161.01171875 C74.56610524 158.06685953 74.56250167 155.12212179 74.56420898 152.17724609 C74.56063105 149.32873576 74.53325785 146.48115663 74.50390625 143.6328125 C74.51208878 142.7576297 74.5202713 141.8824469 74.52870178 140.98074341 C74.46048109 135.3554284 73.63439804 132.34320582 70 128 C69.401875 127.525625 68.80375 127.05125 68.1875 126.5625 C67 125 67 125 67.125 121.5 C68.27107338 116.91570649 68.27107338 116.91570649 71 115 C73.73401998 114.4017525 76.36191498 113.94082189 79.125 113.5625 C85.60065505 112.53913463 91.27568197 111.34669775 97 108 C97.77859375 107.54496094 98.5571875 107.08992188 99.359375 106.62109375 C109.28409447 100.41003565 114.94226514 91.49681243 117.60522461 80.14160156 C119.70621473 68.7440225 118.61365861 57.21454375 113 47 C111.91059165 45.55578434 110.78791287 44.13571393 109.625 42.75 C107.04565939 39.57188389 107.04565939 39.57188389 106.84375 37.04296875 C107.03724557 35.59443942 107.28125892 34.15205693 107.56640625 32.71875 C108.14003193 29.12196196 108.09910757 25.56803485 108.0625 21.9375 C108.05347656 20.62652344 108.04445312 19.31554687 108.03515625 17.96484375 C108.02355469 16.98644531 108.01195312 16.00804688 108 15 C101.24456558 16.20203459 94.78702272 18.36064803 89.4375 22.75 C85.39805762 25.81733358 81.88212638 25.56130757 77 25 C75.52418642 24.67685724 74.05157474 24.33883636 72.58203125 23.98828125 C66.06543907 22.65609374 59.62878404 22.70750779 53 22.75 C51.7934375 22.74226563 50.586875 22.73453125 49.34375 22.7265625 C43.06536676 22.74021116 37.20639179 23.0837364 31.0859375 24.52246094 C26.60130968 25.54913837 22.95239628 26.02415173 18.7734375 23.83203125 C17.13142114 22.79173098 15.49896308 21.73623196 13.875 20.66796875 C8.59604102 17.60531184 2.7863213 15.88430636 -3 14 C-3.02690844 16.62506802 -3.04679404 19.24986173 -3.0625 21.875 C-3.07506836 22.99455078 -3.07506836 22.99455078 -3.08789062 24.13671875 C-3.20688084 28.19845578 -3.20688084 28.19845578 -2 32 C-1.37465599 37.18142177 -1.49318515 39.84899669 -4.75 44 C-5.26046875 44.5775 -5.7709375 45.155 -6.296875 45.75 C-11.49157633 52.6127247 -12.69151473 58.52129951 -12.5625 67.0625 C-12.55299316 68.0738501 -12.54348633 69.0852002 -12.53369141 70.12719727 C-12.21101795 81.84695833 -9.61178062 93.44944057 -1 102 C4.605251 107.27189907 10.72529842 109.73554402 18 112 C19.19625 112.391875 20.3925 112.78375 21.625 113.1875 C24.42212293 113.86088145 26.84217652 114.1668056 29.6875 114.375 C32.75520963 114.68386496 33.91285465 114.9426116 36.5625 116.6875 C38.51696997 119.83164734 38.64529419 121.34333293 38 125 C36.85335745 126.92472142 35.59782411 128.64372225 34.19140625 130.38671875 C32.1176355 133.19480832 31.87224668 135.77936872 31.84228516 139.1484375 C31.82689194 140.39488037 31.82689194 140.39488037 31.81118774 141.66650391 C31.80388641 142.56030762 31.79658508 143.45411133 31.7890625 144.375 C31.76100487 146.26563382 31.73234048 148.15625872 31.703125 150.046875 C31.66178452 153.02929539 31.62489831 156.01154712 31.59863281 158.99414062 C31.57109427 161.87144352 31.52523636 164.74798759 31.4765625 167.625 C31.47330963 168.51880371 31.47005676 169.41260742 31.46670532 170.33349609 C31.44185562 171.57993896 31.44185562 171.57993896 31.41650391 172.8515625 C31.40841705 173.58197754 31.4003302 174.31239258 31.39199829 175.06494141 C30.88186034 177.58318409 30.04087443 178.47111951 28 180 C24.5 180.4375 24.5 180.4375 21 180 C18.35751745 177.56311106 18.01370093 176.16148829 17.70703125 172.546875 C17.74183594 171.29390625 17.77664062 170.0409375 17.8125 168.75 C17.85310547 166.85507812 17.85310547 166.85507812 17.89453125 164.921875 C17.94673828 163.47554688 17.94673828 163.47554688 18 162 C16.94941406 162.04640625 15.89882812 162.0928125 14.81640625 162.140625 C6.69691766 162.39311952 0.0848844 162.46847481 -7 158 C-7.62132813 157.649375 -8.24265625 157.29875 -8.8828125 156.9375 C-14.95919749 153.14962364 -18.91655065 147.31053968 -21.125 140.5625 C-21.71330163 137.90072221 -21.71330163 137.90072221 -23.76171875 137.02734375 C-24.86966797 136.51880859 -24.86966797 136.51880859 -26 136 C-27.57772466 135.02419718 -29.14003743 134.02311575 -30.6875 133 C-31.47511719 132.484375 -32.26273438 131.96875 -33.07421875 131.4375 C-35 130 -35 130 -36 128 C-36.45856256 122.61188997 -36.45856256 122.61188997 -34.73828125 120.31640625 C-32.57193641 118.675826 -31.62068647 118.63151665 -28.9375 118.875 C-21.34296696 120.02531201 -15.28413849 124.97365622 -10.6875 130.9375 C-8.41299328 134.21865116 -6.38022071 137.63626203 -4.46875 141.140625 C-0.91941846 145.63392769 3.25434597 147.40308482 8.859375 148.0625 C9.52453125 148.124375 10.1896875 148.18625 10.875 148.25 C11.56335938 148.32734375 12.25171875 148.4046875 12.9609375 148.484375 C14.63906865 148.67083402 16.31937988 148.83749729 18 149 C17.98839844 147.99839844 17.97679687 146.99679688 17.96484375 145.96484375 C17.95545602 144.62239772 17.94635688 143.27994964 17.9375 141.9375 C17.92589844 140.62652344 17.91429687 139.31554687 17.90234375 137.96484375 C17.99547665 134.1836481 18.38551274 130.72079293 19 127 C18.41734375 126.92523438 17.8346875 126.85046875 17.234375 126.7734375 C4.8928332 124.79413363 -7.11046588 118.38826249 -14.96484375 108.53515625 C-21.5340225 98.74607369 -26.876339 87.91782846 -27 76 C-27.07200034 74.4648005 -27.14502013 72.92964866 -27.21875 71.39453125 C-27.59592992 61.05507446 -27.87464253 49.87855119 -20.70849609 41.48779297 C-16.17114603 36.11179337 -16.58269417 31.55202992 -17 24.75 C-17.27760974 16.22475935 -17.45589617 9.05424322 -12 2 C-7.97668817 -0.68220789 -4.64934602 -0.54253816 0 0 Z " fill="#0F0D1D" transform="translate(73,46)"/>
<path d="M0 0 C1.77669223 3.06156654 2.24050818 5.24036215 2.1953125 8.765625 C2.18886719 9.65507813 2.18242187 10.54453125 2.17578125 11.4609375 C2.15902344 12.38132812 2.14226562 13.30171875 2.125 14.25 C2.11597656 15.18585938 2.10695312 16.12171875 2.09765625 17.0859375 C2.07413636 19.39088657 2.04126853 21.6953116 2 24 C1.67 24 1.34 24 1 24 C1 18.06 1 12.12 1 6 C0.34 6 -0.32 6 -1 6 C-0.67 4.02 -0.34 2.04 0 0 Z " fill="#3A3841" transform="translate(203,98)"/>
<path d="M0 0 C4.875 1.75 4.875 1.75 6 4 C3.21176345 5.0326802 2.1322726 5.04509293 -0.75 4.0625 C-1.4925 3.711875 -2.235 3.36125 -3 3 C-2.01 2.01 -1.02 1.02 0 0 Z " fill="#1C1A28" transform="translate(78,165)"/>
</svg>
